<svg xmlns="http://www.w3.org/2000/svg" width="24" height="25" viewBox="0 0 24 25" fill="none">
  <path d="M18.75 8.54688V10.6469C18.31 10.5869 17.81 10.5569 17.25 10.5469V8.54688C17.25 5.39687 16.36 3.29688 12 3.29688C7.64 3.29688 6.75 5.39687 6.75 8.54688V10.5469C6.19 10.5569 5.69 10.5869 5.25 10.6469V8.54688C5.25 5.64687 5.95 1.79688 12 1.79688C18.05 1.79688 18.75 5.64687 18.75 8.54688Z" fill="#4B4B4B"/>
  <path opacity="0.4" d="M22 15.5469V17.5469C22 21.5469 21 22.5469 17 22.5469H7C3 22.5469 2 21.5469 2 17.5469V15.5469C2 12.2069 2.7 10.9569 5.25 10.6469C5.69 10.5869 6.19 10.5569 6.75 10.5469H17.25C17.81 10.5569 18.31 10.5869 18.75 10.6469C21.3 10.9569 22 12.2069 22 15.5469Z" fill="#4B4B4B"/>
  <path d="M8 17.5467C7.87 17.5467 7.74 17.5167 7.62 17.4667C7.49 17.4167 7.39001 17.3467 7.29001 17.2567C7.11001 17.0667 7 16.8067 7 16.5467C7 16.4167 7.02999 16.2867 7.07999 16.1667C7.12999 16.0467 7.20001 15.9367 7.29001 15.8367C7.39001 15.7467 7.49 15.6767 7.62 15.6267C7.99 15.4667 8.42999 15.5567 8.70999 15.8367C8.79999 15.9367 8.87001 16.0467 8.92001 16.1667C8.97001 16.2867 9 16.4167 9 16.5467C9 16.8067 8.88999 17.0667 8.70999 17.2567C8.51999 17.4367 8.26 17.5467 8 17.5467Z" fill="#4B4B4B"/>
  <path d="M12 17.5471C11.73 17.5471 11.48 17.4371 11.29 17.2571C11.2 17.1571 11.13 17.0471 11.08 16.9271C11.03 16.8071 11 16.6771 11 16.5471C11 16.2771 11.11 16.0271 11.29 15.8371C11.66 15.4671 12.33 15.4671 12.71 15.8371C12.89 16.0271 13 16.2771 13 16.5471C13 16.6771 12.97 16.8071 12.92 16.9271C12.87 17.0471 12.8 17.1571 12.71 17.2571C12.52 17.4371 12.26 17.5471 12 17.5471Z" fill="#4B4B4B"/>
  <path d="M16 17.5471C15.74 17.5471 15.48 17.4371 15.29 17.2571C15.11 17.0671 15 16.8171 15 16.5471C15 16.2771 15.11 16.0271 15.29 15.8371C15.67 15.4671 16.34 15.4671 16.71 15.8371C16.75 15.8871 16.79 15.9371 16.83 15.9971C16.87 16.0471 16.9 16.1071 16.92 16.1671C16.95 16.2271 16.97 16.2871 16.98 16.3471C16.99 16.4171 17 16.4871 17 16.5471C17 16.8071 16.89 17.0671 16.71 17.2571C16.52 17.4371 16.26 17.5471 16 17.5471Z" fill="#4B4B4B"/>
</svg>