<svg xmlns="http://www.w3.org/2000/svg" width="19" height="19" viewBox="0 0 19 19" fill="none">
  <path d="M9.89453 12.9755C8.10203 12.9755 6.64703 11.5205 6.64703 9.72797C6.64703 7.93547 8.10203 6.48047 9.89453 6.48047C11.687 6.48047 13.142 7.93547 13.142 9.72797C13.142 11.5205 11.687 12.9755 9.89453 12.9755ZM9.89453 7.60547C8.72453 7.60547 7.77203 8.55797 7.77203 9.72797C7.77203 10.898 8.72453 11.8505 9.89453 11.8505C11.0645 11.8505 12.017 10.898 12.017 9.72797C12.017 8.55797 11.0645 7.60547 9.89453 7.60547Z" fill="#292D32"/>
  <path d="M9.89453 16.4929C7.07453 16.4929 4.41203 14.8429 2.58203 11.9779C1.78703 10.7404 1.78703 8.72289 2.58203 7.47789C4.41953 4.61289 7.08203 2.96289 9.89453 2.96289C12.707 2.96289 15.3695 4.61289 17.1995 7.47789C17.9945 8.71539 17.9945 10.7329 17.1995 11.9779C15.3695 14.8429 12.707 16.4929 9.89453 16.4929ZM9.89453 4.08789C7.47203 4.08789 5.15453 5.54289 3.53453 8.08539C2.97203 8.96289 2.97203 10.4929 3.53453 11.3704C5.15453 13.9129 7.47203 15.3679 9.89453 15.3679C12.317 15.3679 14.6345 13.9129 16.2545 11.3704C16.817 10.4929 16.817 8.96289 16.2545 8.08539C14.6345 5.54289 12.317 4.08789 9.89453 4.08789Z" fill="#292D32"/>
</svg>