<svg xmlns="http://www.w3.org/2000/svg" width="18" height="19" viewBox="0 0 18 19" fill="none">
  <path d="M7.10195 12.2944C6.95945 12.2944 6.81695 12.2419 6.70445 12.1294C6.08945 11.5144 5.75195 10.6969 5.75195 9.83441C5.75195 8.04191 7.20695 6.58691 8.99945 6.58691C9.86195 6.58691 10.6795 6.92441 11.2945 7.53941C11.3995 7.64441 11.4595 7.78691 11.4595 7.93691C11.4595 8.08691 11.3995 8.22941 11.2945 8.33441L7.49945 12.1294C7.38695 12.2419 7.24445 12.2944 7.10195 12.2944ZM8.99945 7.71191C7.82945 7.71191 6.87695 8.66441 6.87695 9.83441C6.87695 10.2094 6.97445 10.5694 7.15445 10.8844L10.0495 7.98941C9.73445 7.80941 9.37445 7.71191 8.99945 7.71191Z" fill="#4B4B4B"/>
  <path d="M4.20086 14.7168C4.07336 14.7168 3.93836 14.6718 3.83336 14.5818C3.03086 13.8993 2.31086 13.0593 1.69586 12.0843C0.900859 10.8468 0.900859 8.82934 1.69586 7.58434C3.52586 4.71934 6.18836 3.06934 9.00086 3.06934C10.6509 3.06934 12.2784 3.63934 13.7034 4.71184C13.9509 4.89934 14.0034 5.25184 13.8159 5.49934C13.6284 5.74684 13.2759 5.79934 13.0284 5.61184C11.7984 4.68184 10.4034 4.19434 9.00086 4.19434C6.57836 4.19434 4.26086 5.64934 2.64086 8.19184C2.07836 9.06934 2.07836 10.5993 2.64086 11.4768C3.20336 12.3543 3.84836 13.1118 4.56086 13.7268C4.79336 13.9293 4.82336 14.2818 4.62086 14.5218C4.51586 14.6493 4.35836 14.7168 4.20086 14.7168Z" fill="#4B4B4B"/>
  <path d="M8.99993 16.5986C8.00242 16.5986 7.02742 16.3961 6.08992 15.9986C5.80492 15.8786 5.66992 15.5486 5.78992 15.2636C5.90992 14.9786 6.23992 14.8436 6.52492 14.9636C7.31992 15.3011 8.15242 15.4736 8.99242 15.4736C11.4149 15.4736 13.7324 14.0186 15.3524 11.4761C15.9149 10.5986 15.9149 9.06862 15.3524 8.19112C15.1199 7.82362 14.8649 7.47112 14.5949 7.14112C14.3999 6.90112 14.4374 6.54862 14.6774 6.34612C14.9174 6.15112 15.2699 6.18112 15.4724 6.42862C15.7649 6.78862 16.0499 7.17862 16.3049 7.58362C17.0999 8.82112 17.0999 10.8386 16.3049 12.0836C14.4749 14.9486 11.8124 16.5986 8.99993 16.5986Z" fill="#4B4B4B"/>
  <path d="M9.51671 13.0363C9.25421 13.0363 9.01421 12.8488 8.96171 12.5788C8.90171 12.2713 9.10421 11.9788 9.41171 11.9263C10.2367 11.7763 10.9267 11.0863 11.0767 10.2613C11.1367 9.95375 11.4292 9.75876 11.7367 9.81126C12.0442 9.87126 12.2467 10.1638 12.1867 10.4713C11.9467 11.7688 10.9117 12.7963 9.62171 13.0363C9.58421 13.0288 9.55421 13.0363 9.51671 13.0363Z" fill="#4B4B4B"/>
  <path d="M1.50008 17.8965C1.35758 17.8965 1.21508 17.844 1.10258 17.7315C0.885078 17.514 0.885078 17.154 1.10258 16.9365L6.70508 11.334C6.92258 11.1165 7.28258 11.1165 7.50008 11.334C7.71758 11.5515 7.71758 11.9115 7.50008 12.129L1.89758 17.7315C1.78508 17.844 1.64258 17.8965 1.50008 17.8965Z" fill="#4B4B4B"/>
  <path d="M10.8966 8.49906C10.7541 8.49906 10.6116 8.44656 10.4991 8.33406C10.2816 8.11656 10.2816 7.75656 10.4991 7.53906L16.1016 1.93656C16.3191 1.71906 16.6791 1.71906 16.8966 1.93656C17.1141 2.15406 17.1141 2.51406 16.8966 2.73156L11.2941 8.33406C11.1816 8.44656 11.0391 8.49906 10.8966 8.49906Z" fill="#4B4B4B"/>
</svg>